<?xml version="1.0" encoding="UTF-8"?>
<svg id="Camada_1" xmlns="http://www.w3.org/2000/svg" viewBox="0 0 800 800">
  <defs>
    <style>
      .cls-1 {
        fill: none;
        stroke: #1852c2;
        stroke-linecap: round;
        stroke-linejoin: round;
        stroke-width: 66.67px;
      }
    </style>
  </defs>
  <path class="cls-1" d="M133.33,700c0-117.55,86.92-214.8,200-230.97M662.42,506.79c-2.27.14-4.56.21-6.86.21-34.15,0-65.3-15.25-88.89-40.33-23.59,25.08-54.74,40.33-88.89,40.33-2.3,0-4.59-.07-6.86-.21-2.77,12.72-4.25,26.06-4.25,39.81,0,73.81,42.49,135.82,100,153.4,57.51-17.58,100-79.6,100-153.4,0-13.75-1.47-27.09-4.25-39.8ZM500,233.33c0,73.64-59.7,133.33-133.33,133.33s-133.33-59.7-133.33-133.33,59.7-133.33,133.33-133.33,133.33,59.7,133.33,133.33Z"/>
</svg>