<?xml version="1.0" encoding="UTF-8"?>
<svg id="Camada_1" xmlns="http://www.w3.org/2000/svg" viewBox="0 0 800 800">
  <defs>
    <style>
      .cls-1 {
        fill: none;
        stroke: #1852c2;
        stroke-linecap: round;
        stroke-linejoin: round;
        stroke-width: 66.67px;
      }
    </style>
  </defs>
  <path class="cls-1" d="M700.13,400c0,165.69-134.31,300-300,300H100.15s51.97-124.8,31.17-166.64c-19.97-40.17-31.2-85.45-31.2-133.36,0-165.69,134.31-300,300-300s300,134.31,300,300Z"/>
  <path class="cls-1" d="M500,338.89h-12.5c-34.15,0-63.91-13.81-87.5-38.89-23.59,25.08-53.35,38.89-87.5,38.89h-12.5s0,25.92,0,41.04c0,73.81,42.49,135.82,100,153.4,57.51-17.58,100-79.6,100-153.4v-41.04Z"/>
</svg>