<?xml version="1.0" encoding="UTF-8"?>
<svg id="Camada_1" xmlns="http://www.w3.org/2000/svg" viewBox="0 0 800 800">
  <defs>
    <style>
      .cls-1 {
        fill: none;
        stroke: #1852c2;
        stroke-linecap: round;
        stroke-linejoin: round;
        stroke-width: 66.67px;
      }
    </style>
  </defs>
  <path class="cls-1" d="M400,483.33v66.67M233.33,334.29c15.71-.96,35.09-.96,60-.96h213.33c24.91,0,44.29,0,60,.96M233.33,334.29c-19.61,1.2-33.52,3.89-45.4,9.94-18.82,9.59-34.11,24.88-43.7,43.7-10.9,21.39-10.9,49.39-10.9,105.4v46.67c0,56.01,0,84.01,10.9,105.4,9.59,18.82,24.89,34.11,43.7,43.7,21.39,10.9,49.39,10.9,105.4,10.9h213.33c56.01,0,84.01,0,105.4-10.9,18.82-9.59,34.11-24.88,43.7-43.7,10.9-21.39,10.9-49.39,10.9-105.4v-46.67c0-56.01,0-84.01-10.9-105.4-9.59-18.82-24.88-34.11-43.7-43.7-11.88-6.05-25.79-8.74-45.4-9.94M233.33,334.29v-67.63c0-92.05,74.62-166.67,166.67-166.67s166.67,74.62,166.67,166.67v67.63"/>
</svg>